<svg xmlns="http://www.w3.org/2000/svg" width="65.873" height="41.669" viewBox="0 0 65.873 41.669">
  <g id="Group_25" data-name="Group 25" transform="translate(-207.451 -4049)">
    <path id="Path_11" data-name="Path 11" d="M65.655,69.978a94.045,94.045,0,0,1-9.125,3.565l-4.89,1.3-7.3,12.413,3.767.365a4.56,4.56,0,0,0,3.755-1.408L66.291,70.936a.585.585,0,0,0-.636-.957Z" transform="translate(185.693 4003.025)" fill="#fe0"/>
    <path id="Path_12" data-name="Path 12" d="M67.2,33.146c-2.468-3.325-10.77-2.541-12.377-2.119-.1.026-.2.052-.295.08l.008-.005-.013.005L44.236,35.951,13.483,24.784a5.535,5.535,0,0,0-2.639-.3A14.14,14.14,0,0,0,4.46,27.074l23.8,16.4-9.891,4.654L5.09,45.212a.239.239,0,0,0-.151.016L1.591,46.769a.239.239,0,0,0-.062.394C3.056,48.54,10.6,55.3,10.6,55.3a1.393,1.393,0,0,0,1.121.343l5.732-.794a4.818,4.818,0,0,0,.577-.116l17.676-4.7c3.718-.988,20.426-8.54,23.867-10.287C61.014,39.159,68.354,35.426,67.2,33.146Z" transform="translate(206 4024.564)" fill="#fe0"/>
  </g>
</svg>
