<svg xmlns="http://www.w3.org/2000/svg" width="75.835" height="26.869" viewBox="0 0 75.835 26.869">
  <g id="Group_26" data-name="Group 26" transform="translate(-207 -4146)">
    <g id="Group_19" data-name="Group 19" transform="translate(207 4146)">
      <path id="Path_37" data-name="Path 37" d="M64.942,0H4.565A4.577,4.577,0,0,0,.207,3.216H51.663V7.884H0V8.922H51.663V13.59H0v1.349H75.213C73.553,8.4,69.611,0,64.942,0ZM0,16.184A5.668,5.668,0,0,0,5.6,21.89h7.469a5.674,5.674,0,0,1,11.2,0H54.361a5.674,5.674,0,0,1,11.2,0h8.4a1.86,1.86,0,0,0,1.867-1.867,18.672,18.672,0,0,0-.415-3.838Zm72.1-3.942H62.971c-1.764-2.49-5.913-7.988-9.752-9.959H66.187C69.4,4.876,70.959,8.4,72.1,12.242Z" fill="#fe0" fill-rule="evenodd"/>
      <path id="Path_38" data-name="Path 38" d="M540.357,175a4.357,4.357,0,1,0,4.357,4.357A4.383,4.383,0,0,0,540.357,175Z" transform="translate(-480.394 -156.845)" fill="#fe0" fill-rule="evenodd"/>
      <path id="Path_39" data-name="Path 39" d="M142.357,175a4.357,4.357,0,0,0,0,8.714,4.357,4.357,0,1,0,0-8.714Z" transform="translate(-123.684 -156.845)" fill="#fe0" fill-rule="evenodd"/>
    </g>
  </g>
</svg>
