<svg xmlns="http://www.w3.org/2000/svg" width="203" height="44" viewBox="0 0 203 44">
  <g id="Group_23" data-name="Group 23" transform="translate(-138 -20)">
    <text id="Travel" transform="translate(213 55)" fill="#fff" font-size="35" font-family="Roboto-Bold, Roboto" font-weight="700"><tspan x="0" y="0">TRAVEL</tspan></text>
    <g id="Group_22" data-name="Group 22">
      <g id="Group_7" data-name="Group 7" transform="translate(138 20)">
        <g id="Group_1" data-name="Group 1" transform="translate(7.411 0)">
          <path id="Path_1" data-name="Path 1" d="M42.465,66.43a21.965,21.965,0,1,1,0-43.93,22.344,22.344,0,0,1,14,4.989,21.729,21.729,0,0,1,5.808,7.446,1.116,1.116,0,1,1-2.01.968,21.722,21.722,0,0,0-5.212-6.7A19.755,19.755,0,1,0,60.409,52.73a1.116,1.116,0,1,1,2.01.968A22,22,0,0,1,42.465,66.43Z" transform="translate(-20.5 -22.5)" fill="#fe0"/>
        </g>
        <g id="Group_2" data-name="Group 2" transform="translate(0 17.786)">
          <path id="Path_2" data-name="Path 2" d="M23.319,64.788c-6.552,0-11.169-1.787-12.434-5.138-1.34-3.648,1.34-8.339,7.595-13.03a1.117,1.117,0,1,1,1.34,1.787c-5.212,3.946-7.744,7.892-6.85,10.5,1.489,4.021,11.764,5.435,26.507.893a1.13,1.13,0,1,1,.67,2.159A58.344,58.344,0,0,1,23.319,64.788Z" transform="translate(-10.547 -46.388)" fill="#fe0"/>
        </g>
        <g id="Group_3" data-name="Group 3" transform="translate(41.512 4.717)">
          <path id="Path_3" data-name="Path 3" d="M82.159,35.51a1.12,1.12,0,0,1-1.042-.745c-.968-2.606-5.435-3.946-11.988-3.648H67.417a1.117,1.117,0,0,1,0-2.234h1.638C76.8,28.511,81.862,30.3,83.2,34.021a1.077,1.077,0,0,1-.67,1.415A.671.671,0,0,1,82.159,35.51Z" transform="translate(-66.3 -28.835)" fill="#fe0"/>
        </g>
        <g id="Group_6" data-name="Group 6" transform="translate(22.841 28.46)">
          <g id="Group_4" data-name="Group 4">
            <path id="Path_4" data-name="Path 4" d="M47.758,65.471a.944.944,0,0,1-.447-.074l-5.435-2.532a1.039,1.039,0,0,1-.521-1.489,1.058,1.058,0,0,1,1.489-.521l5.435,2.532a1.039,1.039,0,0,1,.521,1.489A1.188,1.188,0,0,1,47.758,65.471Z" transform="translate(-41.224 -60.724)" fill="#fe0"/>
          </g>
          <g id="Group_5" data-name="Group 5" transform="translate(2.904 2.532)">
            <path id="Path_5" data-name="Path 5" d="M46.223,71.775a.944.944,0,0,1-.447-.074,1.039,1.039,0,0,1-.521-1.489l2.532-5.435a1.058,1.058,0,0,1,1.489-.521,1.039,1.039,0,0,1,.521,1.489L47.265,71.1A1.123,1.123,0,0,1,46.223,71.775Z" transform="translate(-45.124 -64.124)" fill="#fe0"/>
          </g>
        </g>
      </g>
      <g id="Group_8" data-name="Group 8" transform="translate(163.763 34.296)">
        <path id="Path_6" data-name="Path 6" d="M55.164,58.3a.944.944,0,0,1-.447-.074l-8.935-4.1a1.144,1.144,0,0,1,.447-2.159l8.86-.3,3.2-1.936L53.3,44.38a1.12,1.12,0,0,1-.3-.819,1.2,1.2,0,0,1,.372-.819,5.742,5.742,0,0,1,3.5-1.042c2.755,0,5.957,1.415,9.53,4.1L74,42.3a4.431,4.431,0,0,1,1.861-.3c1.415,0,4.021.372,4.691,1.936a2.333,2.333,0,0,1-.745,2.978,17.142,17.142,0,0,1-2.978,1.638l-21.22,9.679A.944.944,0,0,1,55.164,58.3Zm-4.17-4.244,4.17,1.861L75.789,46.54c1.117-.521,2.532-1.117,2.68-1.489a.231.231,0,0,0-.074-.149,4.679,4.679,0,0,0-2.68-.6,2.3,2.3,0,0,0-.968.149l-8.19,3.723a1.166,1.166,0,0,1-1.191-.149c-4.17-3.351-7-4.021-8.637-4.021a3.625,3.625,0,0,0-.893.074l4.84,5.138a1.023,1.023,0,0,1,.3.893,1.416,1.416,0,0,1-.521.819l-4.616,2.829a1.38,1.38,0,0,1-.521.149Z" transform="translate(-45.148 -41.7)" fill="#fe0"/>
      </g>
    </g>
  </g>
</svg>
