<svg xmlns="http://www.w3.org/2000/svg" width="73.324" height="51.661" viewBox="0 0 73.324 51.661">
  <g id="Group_27" data-name="Group 27" transform="translate(-207 -4218)">
    <g id="Group_18" data-name="Group 18" transform="translate(201 3242.639)">
      <path id="Path_35" data-name="Path 35" d="M6.9,988.276c5.749.008,11.51.033,17.232.085a.847.847,0,0,1,.838.859l.1,26.025,47.588-.135a.849.849,0,0,1,.834.877l-.067,3.8a.854.854,0,0,1-.682.832,3.083,3.083,0,0,1,.566,1.772,3.159,3.159,0,0,1-6.317,0,3.086,3.086,0,0,1,.543-1.746l-5.338.013,1.641,3.126a.839.839,0,0,1-.763,1.222H54.3a.839.839,0,0,1-.758-1.227l1.654-3.105-8.963.021,1.622,3.089a.839.839,0,0,1-.761,1.222H38.318a.839.839,0,0,1-.76-1.227l1.635-3.068-8.924.021,1.6,3.051a.839.839,0,0,1-.761,1.222H22.333a.839.839,0,0,1-.76-1.227l1.615-3.03-4.752.012a3.071,3.071,0,0,1,.748,1.987,3.176,3.176,0,0,1-6.35,0,3.084,3.084,0,0,1,.7-1.94H7.617a.839.839,0,1,1,0-1.676h5.769V1003.65a.848.848,0,0,1,.833-.862h4.136l.088-12.8L6.9,989.843a.791.791,0,1,1,0-1.567h0Zm16.409,1.816-3.207.022-.094,13.542a.847.847,0,0,1-.831.856h-4.13v14.529l56.726-.133.036-2.072-47.569.135a.848.848,0,0,1-.834-.859l-.1-26.02Zm37.073,30.777H57.023l-1.309,2.457h5.961l-1.288-2.457Zm-15.985,0H41.039l-1.309,2.457H45.69Zm-15.985,0H25.054l-1.309,2.457h5.963Zm41.735.063a1.439,1.439,0,1,0,1.448,1.455A1.45,1.45,0,0,0,70.152,1020.933Zm-54.159.357a1.439,1.439,0,1,0,1.478,1.455A1.451,1.451,0,0,0,15.993,1021.289Z" transform="translate(0 1.179)" fill="#fe0"/>
      <path id="Path_36" data-name="Path 36" d="M52.75,971.363a3.21,3.21,0,0,1,1.652.877.816.816,0,0,0,.527.345,9.536,9.536,0,0,1,2.373-.41,4.748,4.748,0,0,1,1.791,1.51c.183.27.347.514.478.666a1.019,1.019,0,0,0,.174.163,3.631,3.631,0,0,0,.925-.249,3.16,3.16,0,0,1,1.97-.34,1.562,1.562,0,0,1,1.065.9c.206.338.374.7.546,1.056a7.3,7.3,0,0,0,.512.919,1.155,1.155,0,0,0,.312.322l.013,0a10.735,10.735,0,0,0,1.612.267,2.678,2.678,0,0,1,1.01.322,1.666,1.666,0,0,1,.756,1.089l.532,3a.831.831,0,0,1,.008.229,1.708,1.708,0,0,1,1.254,1.606v5.232a1.658,1.658,0,0,1-.532,1.2h8.218a.848.848,0,0,1,.862.833v1.763a.858.858,0,0,1,.27.153c2.938,2.414,4.615,4.515,4.635,6.837s-1.633,4.408-4.541,6.759a.864.864,0,0,1-.364.177v2.431a.848.848,0,0,1-.862.833H33.2a.848.848,0,0,1-.862-.833V986.247a.848.848,0,0,1,.862-.833h26a.848.848,0,0,1,.86.833v3.818h6.805a1.646,1.646,0,0,1-.514-1.2v-5.232a1.649,1.649,0,0,1,.638-1.3c-.34-.156-.689-.324-1.025-.461l-.037-.015-2.235-1.035h0a3.168,3.168,0,0,0-1.078-.005,4.648,4.648,0,0,1-1.921-.01,2.11,2.11,0,0,1-1.114-.768,5.49,5.49,0,0,1-.527-.9c-.28-.545-.462-.855-.862-1-.271.036-.412.085-.641.13a3.425,3.425,0,0,1-1.61.27,2.531,2.531,0,0,1-1.727-1.222c-.109-.167-.255-.35-.364-.5a4.822,4.822,0,0,1-2.506-.456,2.973,2.973,0,0,1-.966-1.3,3.462,3.462,0,0,1-.151-1.387,1.648,1.648,0,0,1,.361-.9,3.921,3.921,0,0,1,.613-.682,3.391,3.391,0,0,1,.769-.532,1.587,1.587,0,0,1,.789-.2Z" transform="translate(-4.393 4)" fill="#fe0"/>
    </g>
  </g>
</svg>
